<?xml version="1.0" encoding="utf-8"?>
<!-- Generator: IcoMoon.io  -->
<!DOCTYPE svg PUBLIC "-//W3C//DTD SVG 1.1//EN" "http://www.w3.org/Graphics/SVG/1.1/DTD/svg11.dtd">
<svg width="224" height="32" viewBox="0 0 224 32" data-tags="spinner, loading, busy, wait, wheel" style="margin-left: 0px; margin-top: 0px;" xmlns="http://www.w3.org/2000/svg" fill="#000000"><path d="M 256.00,0.00 C 116.626,0.00 3.271,111.381 0.076,249.987 C 3.036,129.055 94.992,32.00 208.00,32.00 C 322.875,32.00 416.00,132.288 416.00,256.00 C 416.00,282.51 437.49,304.00 464.00,304.00 C 490.51,304.00 512.00,282.51 512.00,256.00 C 512.00,114.615 397.385,0.00 256.00,0.00 ZM 256.00,512.00 C 395.374,512.00 508.729,400.619 511.924,262.013 C 508.964,382.945 417.008,480.00 304.00,480.00 C 189.125,480.00 96.00,379.712 96.00,256.00 C 96.00,229.49 74.51,208.00 48.00,208.00 C 21.49,208.00 0.00,229.49 0.00,256.00 C 0.00,397.385 114.615,512.00 256.00,512.00 Z" transform="scale(0.0625 0.0625)"></path><path d="M 96,0 L 96,13 L 91,8 L 85,14 L 82,11 L 88,5 L 83,0 ZM 78,21 L 72,27 L 77,32 L 64,32 L 64,19 L 69,24 L 75,18 Z"></path><path d="M 157,18 C 159.281,18 158,24 156,24 C 157,24 156,29 154,29 C 154,31 152,32 150,32 C 141.552,32 144.523,29.886 136,29 L 136,13 C 143.529,10.742 151,5.080 151,0 C 152.656,0 157,2 151,12 C 151,12 156,12 157,12 C 160,12 159,18 157,18 ZM 134,13 L 134,29 L 136,29 L 136,30 L 132,30 C 130.9,30 130,28.65 130,27 L 130,15 C 130,13.35 130.9,12 132,12 L 136,12 L 136,13 L 134,13 Z"></path><path d="M 195,14 C 192.719,14 194,8 196,8 C 195,8 196,3 198,3 C 198,1 200,0 202,0 C 210.448,0 207.477,2.114 216,3 L 216,19 C 208.471,21.258 201,26.919 201,32 C 199.344,32 195,30 201,20 C 201,20 196,20 195,20 C 192,20 193,14 195,14 ZM 218,19 L 218,3 L 216,3 L 216,2 L 220,2 C 221.1,2 222,3.35 222,5 L 222,17 C 222,18.65 221.1,20 220,20 L 216,20 L 216,19 L 218,19 Z"></path></svg>